<svg xmlns="http://www.w3.org/2000/svg" width="36.385" height="36.385" viewBox="0 0 36.385 36.385">
  <path id="Icon_awesome-link" data-name="Icon awesome-link" d="M23.21,13.175a10.8,10.8,0,0,1,.026,15.25l-.026.026-4.775,4.775A10.8,10.8,0,0,1,3.159,17.95L5.8,15.313a1.136,1.136,0,0,1,1.94.754,13.1,13.1,0,0,0,.689,3.747,1.144,1.144,0,0,1-.269,1.181l-.93.93a5.117,5.117,0,1,0,7.19,7.282l4.775-4.775a5.115,5.115,0,0,0,0-7.236,5.323,5.323,0,0,0-.735-.609,1.14,1.14,0,0,1-.494-.9,2.831,2.831,0,0,1,.831-2.118l1.5-1.5a1.142,1.142,0,0,1,1.463-.123,10.836,10.836,0,0,1,1.458,1.222ZM33.226,3.159a10.814,10.814,0,0,0-15.276,0L13.174,7.934l-.026.026a10.8,10.8,0,0,0,1.484,16.472,1.142,1.142,0,0,0,1.463-.123l1.5-1.5a2.831,2.831,0,0,0,.831-2.118,1.14,1.14,0,0,0-.494-.9,5.323,5.323,0,0,1-.735-.609,5.115,5.115,0,0,1,0-7.236L21.97,7.179a5.117,5.117,0,1,1,7.19,7.282l-.93.93a1.144,1.144,0,0,0-.269,1.181,13.1,13.1,0,0,1,.689,3.747,1.136,1.136,0,0,0,1.94.754l2.637-2.637a10.813,10.813,0,0,0,0-15.276Z" transform="translate(0 0)" fill="#154ed6"/>
</svg>
