<svg xmlns="http://www.w3.org/2000/svg" width="23.842" height="25.676" viewBox="0 0 23.842 25.676">
  <g id="Icon_ionic-ios-gift" data-name="Icon ionic-ios-gift" transform="translate(-3.375 -2.25)">
    <path id="Path_80" data-name="Path 80" d="M25.383,8.21H20.551a3.367,3.367,0,0,0,1.163-2.522A3.534,3.534,0,0,0,18.1,2.25a3.2,3.2,0,0,0-2.8,1.57,3.2,3.2,0,0,0-2.8-1.57A3.534,3.534,0,0,0,8.877,5.689,3.348,3.348,0,0,0,10.04,8.21H5.209a1.832,1.832,0,0,0-1.834,1.834v1.146a.23.23,0,0,0,.229.229H26.988a.23.23,0,0,0,.229-.229V10.044A1.832,1.832,0,0,0,25.383,8.21ZM18.1,3.855A1.884,1.884,0,0,1,20.03,5.689,1.884,1.884,0,0,1,18.1,7.523H16.167C16.167,4.772,17.032,3.855,18.1,3.855Zm-5.605,0c1.066,0,1.931.917,1.931,3.668H12.493a1.884,1.884,0,0,1-1.931-1.834A1.884,1.884,0,0,1,12.493,3.855Z"/>
    <path id="Path_81" data-name="Path 81" d="M4.5,15.787V28.51a1.839,1.839,0,0,0,1.834,1.834H14.7V15.328H4.958A.46.46,0,0,0,4.5,15.787Z" transform="translate(-0.208 -2.418)"/>
    <path id="Path_82" data-name="Path 82" d="M28.727,15.328H18.984V30.344h8.368a1.839,1.839,0,0,0,1.834-1.834V15.787A.46.46,0,0,0,28.727,15.328Z" transform="translate(-2.886 -2.418)"/>
  </g>
</svg>
