<svg id="Icon_ionic-ios-mail" data-name="Icon ionic-ios-mail" xmlns="http://www.w3.org/2000/svg" width="57.283" height="39.657" viewBox="0 0 57.283 39.657">
  <path id="Path_180" data-name="Path 180" d="M60.19,10.4,45.373,25.49a.266.266,0,0,0,0,.386L55.742,36.919a1.787,1.787,0,0,1,0,2.534,1.8,1.8,0,0,1-2.534,0l-10.327-11a.283.283,0,0,0-.4,0l-2.52,2.561a11.087,11.087,0,0,1-7.9,3.332,11.309,11.309,0,0,1-8.069-3.429l-2.424-2.465a.283.283,0,0,0-.4,0l-10.327,11a1.8,1.8,0,0,1-2.534,0,1.787,1.787,0,0,1,0-2.534L18.673,25.876a.293.293,0,0,0,0-.386L3.843,10.4a.271.271,0,0,0-.468.193v30.2A4.419,4.419,0,0,0,7.781,45.2h48.47a4.419,4.419,0,0,0,4.406-4.406v-30.2A.275.275,0,0,0,60.19,10.4Z" transform="translate(-3.375 -5.538)" fill="#154ed6"/>
  <path id="Path_181" data-name="Path 181" d="M31.2,33.088a7.486,7.486,0,0,0,5.384-2.258L58.19,8.839a4.328,4.328,0,0,0-2.726-.964H6.952a4.3,4.3,0,0,0-2.726.964L25.831,30.83A7.487,7.487,0,0,0,31.2,33.088Z" transform="translate(-2.56 -7.875)" fill="#154ed6"/>
</svg>
