<svg id="Group_189" data-name="Group 189" xmlns="http://www.w3.org/2000/svg" width="23.473" height="23.473" viewBox="0 0 23.473 23.473">
  <g id="Group_188" data-name="Group 188">
    <path id="Path_139" data-name="Path 139" d="M3,13.239H13.239V3H3ZM5.56,5.56h5.12v5.12H5.56Z" transform="translate(-3 -3)" fill="#002680"/>
    <path id="Path_140" data-name="Path 140" d="M3,23.239H13.239V13H3ZM5.56,15.56h5.12v5.12H5.56Z" transform="translate(-3 -0.201)" fill="#002680"/>
    <path id="Path_141" data-name="Path 141" d="M13,3V13.239H23.239V3Zm7.679,7.679H15.56V5.56h5.12Z" transform="translate(-0.201 -3)" fill="#002680"/>
    <rect id="Rectangle_1324" data-name="Rectangle 1324" width="3.983" height="3.983" transform="translate(19.489 19.489)" fill="#002680"/>
    <rect id="Rectangle_1325" data-name="Rectangle 1325" width="1.992" height="1.992" transform="translate(13.514 13.514)" fill="#002680"/>
    <rect id="Rectangle_1326" data-name="Rectangle 1326" width="1.992" height="1.992" transform="translate(15.506 15.506)" fill="#002680"/>
    <rect id="Rectangle_1327" data-name="Rectangle 1327" width="1.992" height="1.992" transform="translate(13.514 17.498)" fill="#002680"/>
    <rect id="Rectangle_1328" data-name="Rectangle 1328" width="1.992" height="3.983" transform="translate(15.506 19.489)" fill="#002680"/>
    <rect id="Rectangle_1329" data-name="Rectangle 1329" width="1.992" height="1.992" transform="translate(17.498 17.498)" fill="#002680"/>
    <rect id="Rectangle_1330" data-name="Rectangle 1330" width="1.992" height="1.992" transform="translate(17.498 13.514)" fill="#002680"/>
    <rect id="Rectangle_1331" data-name="Rectangle 1331" width="3.983" height="1.992" transform="translate(19.489 15.506)" fill="#002680"/>
  </g>
</svg>
